<svg xmlns="http://www.w3.org/2000/svg" version="1.1" xmlns:xlink="http://www.w3.org/1999/xlink" width="512" height="512" x="0" y="0" viewBox="0 0 32 32" style="enable-background:new 0 0 512 512" xml:space="preserve" class=""><g><path d="M30.18 18.893a1.373 1.373 0 0 0-1.632-.011 11.05 11.05 0 0 1-14.215-1.224 11.05 11.05 0 0 1-1.22-14.218 1.399 1.399 0 0 0-.016-1.644 1.322 1.322 0 0 0-1.5-.477 15.127 15.127 0 0 0-6.941 4.767c-4.722 5.73-4.507 14.203.499 19.71 2.812 3.093 6.655 4.851 10.823 4.949a14.958 14.958 0 0 0 11.037-4.416 14.937 14.937 0 0 0 3.643-5.893 1.357 1.357 0 0 0-.478-1.543zm-4.225 6.376a13.48 13.48 0 0 1-9.94 3.978c-3.754-.09-7.217-1.673-9.75-4.46-4.508-4.958-4.701-12.588-.45-17.747a13.627 13.627 0 0 1 5.866-4.161 12.544 12.544 0 0 0 1.592 15.841 12.548 12.548 0 0 0 15.841 1.594 13.435 13.435 0 0 1-3.159 4.955z" fill="#000000" opacity="1" data-original="#000000" class=""></path><path d="M17.736 10.642a5.22 5.22 0 0 1 3.611 3.613.97.97 0 0 0 .938.722h.002a.971.971 0 0 0 .94-.721 5.231 5.231 0 0 1 3.614-3.614l.002-.001a.971.971 0 0 0-.002-1.879 5.222 5.222 0 0 1-3.615-3.613.97.97 0 0 0-.939-.719h-.002a.971.971 0 0 0-.938.722 5.21 5.21 0 0 1-3.61 3.61.972.972 0 0 0-.001 1.88zm4.552-3.808a6.763 6.763 0 0 0 2.871 2.868 6.77 6.77 0 0 0-2.871 2.871 6.763 6.763 0 0 0-2.868-2.871 6.75 6.75 0 0 0 2.868-2.868z" fill="#000000" opacity="1" data-original="#000000" class=""></path></g></svg>