<svg xmlns="http://www.w3.org/2000/svg" width="512px" height="512px" viewBox="190 175 130 110" data-bbox="201.03729841184116 186.51780717956788 115.60127750485549 93.43112177249228" style="overflow: visible;"><g transform="matrix(0.56929612159729, 0, 0, 0.56929612159729, 87.74168395996094, -8.06367301940918)" fill="#000000" data-uid="o-c2202a7ed9ef4afaa98e2cbbdcf565cd"><g data-uid="o-f6f9143134424879b19337082c8915ad"><g data-uid="o-03b2579cd794475688e5ba5dd1f809ea"><path class="st1" d="M343.82 455.55c0 10.1 8.22 18.32 18.32 18.32c10.1 0 18.32-8.22 18.32-18.32v-88.61
					c0-0.4 0.01-0.91 0.03-1.48c0.09-3.52 0.28-10.85-3.23-14.45c-1.63-1.68-4.09-2.49-7.51-2.49c-5.58 0-9.85 1.55-13.98 3.05
					c-6.7 2.43-15.04 5.47-23.83-3.58c-8.17-8.42-18.36-7.22-24.37-2.55c-10.02 7.79-18.6 8.87-35.33 4.43
					c-9.71-2.58-14.12 1.23-20.78 7c-1.42 1.23-2.86 2.47-4.38 3.67c-8.19 6.5-14.11 3.59-18.87 1.26
					c-2.92-1.43-5.93-2.91-10.7-3.43c-4.68-0.5-9.25 0.98-12.84 4.2c-3.49 3.13-5.66 7.6-5.66 11.66v74.06
					c0 10.1 8.22 18.32 18.32 18.32c10.1 0 18.32-8.22 18.32-18.32v-46.29c0-3.21 2.61-5.82 5.82-5.82c3.21 0 5.82 2.61 5.82 5.82
					v46.29v4.59v2.68c0 10.1 8.22 18.32 18.32 18.32c10.1 0 18.32-8.22 18.32-18.32c0-0.12 0.03-0.22 0.03-0.34v-53.22
					c0-3.21 2.61-5.82 5.82-5.82c3.21 0 5.82 2.61 5.82 5.82v54.23c0.36 9.79 8.41 17.64 18.28 17.64c9.72 0 17.67-7.62 18.26-17.19
					v-54.68c0-3.21 2.61-5.82 5.82-5.82c3.21 0 5.82 2.61 5.82 5.82v53C343.78 455.18 343.82 455.36 343.82 455.55z" fill="#000000" data-uid="o-76b3b6d99939428a9d62944af874a55a"></path></g><g data-uid="o-f2074198ec1c412bbcbed17407cf3f18"><path class="st1" d="M391.77 459.7c-2.03 14.56-14.53 25.81-29.64 25.81c-9.89 0-18.68-4.82-24.14-12.23
					c-5.46 7.41-14.24 12.23-24.14 12.23c-6.36 0-12.26-2.01-17.11-5.41v4.24c0 11.91 9.66 21.57 21.57 21.57h62.08
					c11.97 0 21.68-9.71 21.68-21.68V459.7H391.77z" fill="#000000" data-uid="o-870ea3d2dbd04f08a5474eaa21c2a8ba"></path></g></g><g data-uid="o-7a8b97c774c04368820c6a8e63b6fccd"><g data-uid="o-d8281e5709554241aa656afe8b280ff4"></g></g></g></svg>